<svg xmlns="http://www.w3.org/2000/svg" width="32.863" height="29.164" viewBox="0 0 32.863 29.164">
    <path d="M14.867 28.524a2.091 2.091 0 0 0 1.565.64 2.207 2.207 0 0 0 1.568-.64L30.018 16.5a9.617 9.617 0 0 0 0-13.657A9.581 9.581 0 0 0 23.189 0a9.814 9.814 0 0 0-6.829 2.774A9.48 9.48 0 0 0 9.674 0a9.343 9.343 0 0 0-6.829 2.845 9.617 9.617 0 0 0 0 13.657zM3.983 3.983a8.077 8.077 0 0 1 5.691-2.347 8.2 8.2 0 0 1 5.691 2.347l.5.5a.865.865 0 0 0 1.138 0l.5-.5a8.077 8.077 0 0 1 5.691-2.347 8.2 8.2 0 0 1 5.686 2.347 8.077 8.077 0 0 1 2.347 5.691 8.2 8.2 0 0 1-2.347 5.691L16.787 27.386a.558.558 0 0 1-.782 0L3.983 15.293a7.985 7.985 0 0 1 0-11.31zm0 0" data-name="Trazado 207"/>
</svg>
