<svg xmlns="http://www.w3.org/2000/svg" width="27.385" height="32.783" viewBox="0 0 27.385 32.783">
    <defs>
        <style>
            .cls-1{fill:#020203}
        </style>
    </defs>
    <g id="Grupo_270" data-name="Grupo 270" transform="translate(-923.892 -4150.388)">
        <path id="Trazado_209" d="M26.65 34.81H.685a.7.7 0 0 1-.612-.35.671.671 0 0 1 0-.7l2.36-3.89a11.557 11.557 0 0 0 1.661-5.988v-3.409a9.573 9.573 0 0 1 19.145 0v3.409a11.672 11.672 0 0 0 1.661 5.989l2.36 3.89a.671.671 0 0 1 0 .7.819.819 0 0 1-.61.349zM1.866 33.455h23.56l-1.749-2.885a13.221 13.221 0 0 1-1.836-6.644v-3.41a8.218 8.218 0 0 0-16.435 0v3.409a13.258 13.258 0 0 1-1.836 6.689z" class="cls-1" data-name="Trazado 209" transform="translate(923.917 4144.252)"/>
        <path id="Trazado_210" d="M29.808 6.163a.69.69 0 0 1-.7-.7V2.754a1.355 1.355 0 0 0-2.71 0v2.754a.7.7 0 0 1-1.4 0V2.754a2.754 2.754 0 0 1 5.508 0v2.754a.747.747 0 0 1-.698.655z" class="cls-1" data-name="Trazado 210" transform="translate(909.831 4150.388)"/>
        <path id="Trazado_211" d="M26.909 67.964a3.414 3.414 0 0 1-3.409-3.41 3.346 3.346 0 0 1 .481-1.7.675.675 0 1 1 1.18.656 2.03 2.03 0 0 0-.262 1.005 2.054 2.054 0 1 0 4.109 0 2.03 2.03 0 0 0-.262-1.005.675.675 0 1 1 1.18-.656 3.346 3.346 0 0 1 .481 1.7 3.549 3.549 0 0 1-3.498 3.41z" class="cls-1" data-name="Trazado 211" transform="translate(910.675 4115.207)"/>
    </g>
</svg>
