<svg xmlns="http://www.w3.org/2000/svg" width="31.033" height="31.033" viewBox="0 0 31.033 31.033">
    <path d="M0 15.516A15.516 15.516 0 1 0 15.516 0 15.536 15.536 0 0 0 0 15.516zm6.485 10.631a43.2 43.2 0 0 1 4.838-2.825 1.023 1.023 0 0 0 .573-.915v-1.949a.79.79 0 0 0-.111-.4 6.67 6.67 0 0 1-.812-2.379.771.771 0 0 0-.557-.629 4.127 4.127 0 0 1-.565-1.385 3.674 3.674 0 0 1-.2-1.289.782.782 0 0 0 .732-1.042 4.514 4.514 0 0 1-.111-2.658 5.213 5.213 0 0 1 1.385-2.419 6.839 6.839 0 0 1 1.313-1.08c.008-.008.016-.016.024-.016a4.715 4.715 0 0 1 1.225-.629h.008a4.192 4.192 0 0 1 1.1-.207 4.613 4.613 0 0 1 2.8.589 3.283 3.283 0 0 1 1.265 1.146.8.8 0 0 0 .637.422 1.17 1.17 0 0 1 .66.469c.366.493.891 1.766.255 4.838a.775.775 0 0 0 .414.851 3.213 3.213 0 0 1-.183 1.353 4.961 4.961 0 0 1-.5 1.289.88.88 0 0 0-.406.048.781.781 0 0 0-.462.581 7.477 7.477 0 0 1-.589 1.91.855.855 0 0 0-.08.334v2.252a.992.992 0 0 0 .573.915 43.039 43.039 0 0 1 4.838 2.825 13.925 13.925 0 0 1-18.063 0zM15.516 1.56A13.95 13.95 0 0 1 25.7 25.049a45.023 45.023 0 0 0-5-2.976V20.33a8.43 8.43 0 0 0 .509-1.512c.621-.239 1.066-.963 1.48-2.419.374-1.329.342-2.268-.1-2.8.462-2.554.255-4.44-.629-5.6A2.763 2.763 0 0 0 20.593 7a4.951 4.951 0 0 0-1.671-1.448 6.109 6.109 0 0 0-3.676-.8 5.464 5.464 0 0 0-1.5.286h-.008a6.59 6.59 0 0 0-1.6.812 8.229 8.229 0 0 0-1.591 1.313 6.606 6.606 0 0 0-1.774 3.119 5.967 5.967 0 0 0-.073 2.784 1.557 1.557 0 0 0-.239.223c-.462.557-.493 1.44-.111 2.793a4.3 4.3 0 0 0 1.162 2.244 8.414 8.414 0 0 0 .82 2.331v1.416a48.349 48.349 0 0 0-5 2.976A13.95 13.95 0 0 1 15.516 1.56zm0 0" data-name="Trazado 206"/>
</svg>
